<?xml version="1.0" encoding="UTF-8" standalone="no"?>
<!-- Created with Inkscape (http://www.inkscape.org/) -->

<svg
   version="1.1"
   id="svg2"
   width="1600"
   height="1600"
   viewBox="0 0 1600 1600"
   sodipodi:docname="menubg.svg"
   inkscape:export-filename="C:\Users\maggs\Desktop\cs-420\BigPlantMoment\Assets\menubg.png"
   inkscape:export-xdpi="96"
   inkscape:export-ydpi="96"
   inkscape:version="1.1 (c68e22c387, 2021-05-23)"
   xmlns:inkscape="http://www.inkscape.org/namespaces/inkscape"
   xmlns:sodipodi="http://sodipodi.sourceforge.net/DTD/sodipodi-0.dtd"
   xmlns="http://www.w3.org/2000/svg"
   xmlns:svg="http://www.w3.org/2000/svg">
  <defs
     id="defs6">
    <inkscape:path-effect
       effect="spiro"
       id="path-effect1152"
       is_visible="true"
       lpeversion="1" />
    <inkscape:path-effect
       effect="spiro"
       id="path-effect987"
       is_visible="true"
       lpeversion="1" />
  </defs>
  <sodipodi:namedview
     id="namedview4"
     pagecolor="#ffffff"
     bordercolor="#666666"
     borderopacity="1.0"
     inkscape:pageshadow="2"
     inkscape:pageopacity="0.0"
     inkscape:pagecheckerboard="0"
     showgrid="false"
     inkscape:zoom="0.52625"
     inkscape:cx="1050.6556"
     inkscape:cy="620.72874"
     inkscape:window-width="2560"
     inkscape:window-height="1027"
     inkscape:window-x="-8"
     inkscape:window-y="-8"
     inkscape:window-maximized="1"
     inkscape:current-layer="layer3"
     width="1600px"
     inkscape:rotation="-1" />
  <g
     inkscape:groupmode="layer"
     id="layer3"
     inkscape:label="Image 2"
     style="display:inline">
    <g
       id="g35681"
       transform="matrix(1.0002888,0,0,0.9984549,37.605647,-29.445167)">
      <path
         id="rect7059"
         style="fill:#295e7c;fill-opacity:1;stroke-width:1.77219;stroke-dasharray:1.77219, 1.77219"
         d="m 760.17423,1256.4244 c 19.93868,-0.2276 51.30838,-0.2799 55.0586,-0.7414 2.27959,-0.3913 4.6483,-1.2524 4.65831,-2.6355 l 0.0331,-4.565 699.53136,32.9426 -15.2994,-822.15246 c -252.0054,-4.5805 -451.6033,34.32754 -727.25112,36.33696 z"
         sodipodi:nodetypes="ccsccccc" />
      <path
         id="rect7059-2"
         style="display:inline;fill:#295e7c;fill-opacity:1;stroke-width:1.77219;stroke-dasharray:1.77219, 1.77219"
         d="m 764.17423,1256.4244 c -19.9387,-0.2276 -51.3084,-0.2799 -55.0586,-0.7414 -2.2796,-0.3913 -4.6483,-1.2524 -4.6583,-2.6355 l -0.033,-4.565 -699.53139,32.9426 15.2994,-822.1525 c 252.00539,-4.5805 453.93629,34.92423 729.58409,36.93365 z"
         sodipodi:nodetypes="ccsccccc" />
      <path
         id="rect1560-8-2-7"
         style="display:inline;fill:#c6c63f;fill-opacity:1;stroke-width:1.99914;stroke-dasharray:1.99914, 1.99914"
         d="m 762.53855,1202.5131 c 2.14592,-2.8364 74.36097,-8.5993 111.7112,-8.7236 125.15084,-0.4166 249.84575,15.6076 374.50135,26.7376 72.5917,6.4814 217.395,23.3121 217.395,23.3121 l -8.1793,-736.57141 c 0,0 -177.8318,-30.94218 -299.5132,-39.0403 -68.7695,-4.57683 -213.20371,-18.56341 -305.09461,20.65033 -40.33099,17.21112 -91.47389,87.11653 -91.47389,87.11653 z"
         sodipodi:nodetypes="caaccsacc" />
      <path
         id="rect1560-8-2-7-6"
         style="display:inline;fill:#c6c63f;fill-opacity:1;stroke-width:1.99914;stroke-dasharray:1.99914, 1.99914"
         d="m 762.53855,1202.5131 c -2.1459,-2.8364 -74.361,-8.5993 -111.7112,-8.7236 -125.1508,-0.4166 -249.8458,15.6076 -374.5014,26.7376 -72.5917,6.4814 -217.395,23.3121 -217.395,23.3121 l 8.1793,-736.57143 c 0,0 177.8318,-30.94218 299.5133,-39.0403 68.7694,-4.57683 213.2037,-18.56341 305.0946,20.65033 40.331,17.21112 91.4738,87.11653 91.4738,87.11653 z"
         sodipodi:nodetypes="caaccsacc" />
      <path
         id="rect1560-8-2"
         style="display:inline;fill:#e3e36b;fill-opacity:1;stroke-width:1.96232;stroke-dasharray:1.96232, 1.96232"
         d="m 762.51469,1198.5131 c 2.06758,-2.8364 71.64371,-8.1024 107.634,-8.7236 120.38903,-2.0781 240.67561,8.9878 360.83291,16.7376 69.913,4.5092 209.4606,17.3121 209.4606,17.3121 l -7.8808,-744.57141 c 0,0 -171.3413,-30.94218 -288.5816,-39.0403 -66.2596,-4.57683 -205.42231,-18.56341 -293.9594,20.65033 -38.85897,17.21112 -88.13533,87.11653 -88.13533,87.11653 z"
         sodipodi:nodetypes="caaccsacc" />
      <path
         id="rect1560-8-2-4"
         style="display:inline;fill:#e3e36b;fill-opacity:1;stroke-width:1.96232;stroke-dasharray:1.96232, 1.96232"
         d="m 762.51469,1198.5131 c -2.0676,-2.8364 -71.6437,-8.1024 -107.634,-8.7236 -120.389,-2.0781 -240.6756,8.9878 -360.8329,16.7376 -69.913,4.5092 -209.4606,17.3121 -209.4606,17.3121 l 7.8808,-744.57141 c 0,0 171.3413,-30.94218 288.5816,-39.0403 66.2596,-4.57683 205.4223,-18.56341 293.9594,20.65033 38.8589,17.21112 88.1353,87.11653 88.1353,87.11653 z"
         sodipodi:nodetypes="caaccsacc" />
      <path
         id="rect1560-8"
         style="display:inline;fill:#f6f698;fill-opacity:1;stroke-width:1.92702;stroke-dasharray:1.92702, 1.92702"
         d="m 762.49227,1194.5129 c 1.99334,-2.8342 68.91311,-12.4996 103.78304,-14.722 115.7505,-7.3772 232.08089,-1.0074 347.92379,4.7384 67.4856,3.3473 201.9653,17.3104 201.9653,17.3104 l -7.5975,-744.57175 c 0,0 -165.2128,-30.94215 -278.2576,-39.04052 -63.8876,-4.57682 -198.07262,-18.56332 -283.4419,20.65053 -37.46898,17.21114 -84.9823,87.11668 -84.9823,87.11668 z"
         sodipodi:nodetypes="caaccsacc" />
      <path
         id="rect1560-8-0"
         style="display:inline;fill:#f6f698;fill-opacity:1;stroke-width:1.92702;stroke-dasharray:1.92702, 1.92702"
         d="m 762.49227,1194.5129 c -1.9933,-2.8342 -68.9131,-12.4996 -103.783,-14.722 -115.7505,-7.3772 -232.0809,-1.0074 -347.9238,4.7384 -67.4856,3.3473 -201.9653,17.3104 -201.9653,17.3104 l 7.5975,-744.57175 c 0,0 165.2128,-30.94215 278.2576,-39.04052 63.8876,-4.57682 198.0726,-18.56332 283.4419,20.65053 37.469,17.21114 84.9823,87.11668 84.9823,87.11668 z"
         sodipodi:nodetypes="caaccsacc" />
      <path
         id="rect1560"
         style="display:inline;fill:#ffffe5;fill-opacity:1;stroke-width:1.88185;stroke-dasharray:1.88185, 1.88185"
         d="m 763.16352,1186.9425 c 1.90098,-2.8342 66.27468,-23.9699 100.89706,-29.1516 109.39651,-16.3726 221.26332,-9.3411 331.80302,-5.2616 64.4174,2.3773 192.6074,17.3104 192.6074,17.3104 l -7.2455,-744.57174 c 0,0 -157.5578,-30.94215 -265.3647,-39.04052 -60.9275,-4.57682 -188.89512,-18.56332 -270.30888,20.65053 -35.73288,17.21114 -81.0447,87.11668 -81.0447,87.11668 z"
         sodipodi:nodetypes="caaccsacc" />
      <path
         id="rect1560-4"
         style="display:inline;fill:#ffffe5;fill-opacity:1;stroke-width:1.88185;stroke-dasharray:1.88185, 1.88185"
         d="m 763.16352,1186.9425 c -1.901,-2.8342 -66.2747,-23.9699 -100.8971,-29.1516 -109.3965,-16.3726 -221.26328,-9.3411 -331.803,-5.2616 -64.4174,2.3773 -192.6074,17.3104 -192.6074,17.3104 l 7.2455,-744.57175 c 0,0 157.5578,-30.94215 265.3647,-39.04052 60.9275,-4.57682 188.8951,-18.56332 270.3089,20.65053 35.7329,17.21114 81.0447,87.11668 81.0447,87.11668 z"
         sodipodi:nodetypes="caaccsacc" />
      <path
         id="rect10373"
         style="display:inline;fill:#295e7c;stroke:none;stroke-width:1.18004;stroke-miterlimit:4;stroke-dasharray:none"
         d="M 759.39258,490.28516 761,1245.3125 h 2.85742 v 0 h 1.72656 l 1.60743,-755.02534 -3.89844,4.19336 z" />
    </g>
  </g>
  <g
     inkscape:groupmode="layer"
     id="layer6"
     inkscape:label="Image 7"
     style="display:none"
     sodipodi:insensitive="true" />
  <g
     inkscape:groupmode="layer"
     id="layer7"
     inkscape:label="Image 8"
     style="display:none"
     sodipodi:insensitive="true" />
  <g
     inkscape:groupmode="layer"
     id="layer8"
     inkscape:label="Image 9"
     style="display:none"
     sodipodi:insensitive="true" />
  <g
     inkscape:groupmode="layer"
     id="layer1"
     inkscape:label="Image 3"
     style="display:none"
     sodipodi:insensitive="true" />
  <g
     inkscape:groupmode="layer"
     id="layer2"
     inkscape:label="Image 4"
     style="display:inline" />
</svg>
